<svg xmlns="http://www.w3.org/2000/svg" width="177" height="32" fill="none" viewBox="0 0 177 32"><path fill="#fff" d="M23.483 26.485 2.07 11.714C-.1 10.217.638 7.101 3.344 6.368L26.102.191a3.223 3.223 0 0 1 4.315 2.975L29.07 24.112c-.16 2.486-3.416 3.87-5.586 2.373"/><path fill="#fff" d="M16.691 30.13 4.077 5.46A3.441 3.441 0 0 1 7.666.495l23.378 3.608a3.442 3.442 0 0 1 2.539 4.968l-10.77 21.062a3.442 3.442 0 0 1-6.122-.002"/><path fill="#0F172A" d="M24.38 8.727 19.893 8l-5.511 1.57 2.2 4.516 5.15 3.73q.173.121.371.184l1.957-4.015z"/><path fill="#fff" d="M52.366 19.535a2.3 2.3 0 0 0-.14-.82 1.55 1.55 0 0 0-.493-.68q-.363-.316-1.02-.62a14 14 0 0 0-1.698-.634 22 22 0 0 1-2.203-.843 9 9 0 0 1-1.829-1.09 4.9 4.9 0 0 1-1.242-1.465q-.445-.833-.445-1.934a4 4 0 0 1 .469-1.933 4.45 4.45 0 0 1 1.312-1.5q.844-.633 1.992-.973a9 9 0 0 1 2.543-.34q1.887 0 3.293.68t2.18 1.863q.785 1.184.785 2.707h-3.492q0-.75-.316-1.312a2.14 2.14 0 0 0-.938-.903q-.62-.328-1.57-.328-.914 0-1.524.281-.609.27-.914.739a1.8 1.8 0 0 0-.304 1.03q0 .435.21.786.223.351.657.656.433.305 1.066.575t1.465.527q1.395.422 2.45.95 1.066.525 1.78 1.183.715.656 1.079 1.488.363.833.363 1.887 0 1.113-.434 1.992a4.1 4.1 0 0 1-1.254 1.488q-.82.61-1.957.926-1.136.316-2.543.316-1.264 0-2.496-.328a7.6 7.6 0 0 1-2.238-1.02 5.14 5.14 0 0 1-1.594-1.734q-.597-1.055-.597-2.496h3.527q0 .797.246 1.348.246.55.691.89.458.34 1.079.493.632.152 1.382.152.915 0 1.5-.258.598-.258.88-.715a1.87 1.87 0 0 0 .292-1.03m9.07-5.59V24H58.05V11.32h3.176zm-.468 3.27h-.938q0-1.324.317-2.438.328-1.125.949-1.945a4.36 4.36 0 0 1 1.559-1.289q.925-.457 2.144-.457.844 0 1.547.258a3 3 0 0 1 1.207.785q.516.527.797 1.383.28.843.281 2.027V24h-3.375v-8.086q0-.867-.234-1.336a1.33 1.33 0 0 0-.668-.656q-.422-.188-1.02-.188-.656 0-1.148.27-.48.27-.797.75-.316.469-.469 1.101a5.8 5.8 0 0 0-.152 1.36m7.547-.387-1.207.152q0-1.242.304-2.308.317-1.067.926-1.875.621-.81 1.535-1.254.915-.457 2.11-.457.914 0 1.664.27.75.257 1.277.832.54.562.82 1.476.293.915.293 2.238V24h-3.386v-8.098q0-.878-.235-1.336-.222-.468-.656-.644-.421-.188-1.008-.188-.61 0-1.066.246a2.1 2.1 0 0 0-.762.657q-.304.422-.457.984-.153.551-.152 1.207m17.18 4.313v-5.649q0-.61-.2-1.043a1.5 1.5 0 0 0-.621-.691q-.41-.246-1.066-.246-.563 0-.973.199a1.4 1.4 0 0 0-.633.55 1.5 1.5 0 0 0-.222.833h-3.376q0-.81.376-1.535.375-.727 1.09-1.278a5.4 5.4 0 0 1 1.699-.879q.996-.316 2.226-.316 1.477 0 2.625.492 1.149.492 1.805 1.477.668.984.668 2.46v5.426q0 1.044.129 1.711.128.656.375 1.149V24h-3.41q-.247-.515-.376-1.29a11 11 0 0 1-.117-1.57m.445-4.864.023 1.91h-1.887q-.668 0-1.16.153a2.2 2.2 0 0 0-.808.433q-.317.27-.47.633-.14.363-.14.797t.2.785q.199.34.574.54.375.186.879.187.761 0 1.324-.305t.867-.75q.315-.445.328-.844l.89 1.43q-.186.48-.515.996a4.7 4.7 0 0 1-.809.973 4.2 4.2 0 0 1-1.183.738q-.692.282-1.64.281-1.208 0-2.192-.48a4 4 0 0 1-1.547-1.348q-.562-.867-.562-1.968 0-.997.374-1.77.375-.774 1.102-1.3.739-.54 1.84-.81 1.101-.28 2.555-.28zm8.93-2.191V24h-3.376V11.32h3.176zm3.82-2.848-.059 3.13a8 8 0 0 0-.598-.06 6 6 0 0 0-.62-.035q-.715 0-1.243.188a2.2 2.2 0 0 0-.867.527q-.34.352-.516.856a4.2 4.2 0 0 0-.187 1.148l-.68-.21q0-1.231.246-2.262.246-1.043.715-1.817.48-.773 1.172-1.195.69-.422 1.582-.422.282 0 .574.047.293.035.48.105m8.39.082v2.39h-7.383v-2.39zm-5.554-3.129h3.375v11.99q0 .55.14.843.153.293.446.41.292.105.738.106.316 0 .562-.023.258-.036.434-.07l.012 2.484a6 6 0 0 1-.938.222 7 7 0 0 1-1.113.082q-1.114 0-1.945-.363a2.68 2.68 0 0 1-1.266-1.195q-.445-.82-.445-2.156zm11.203-1.254V24h-3.516V6.938zm6.797 7.29v2.742h-7.758v-2.742zm.82-7.29V9.69h-8.578V6.937zm5.391 4.383V24h-3.387V11.32zm-3.598-3.304q0-.739.515-1.22.516-.48 1.383-.48.857 0 1.371.48.528.481.528 1.22 0 .738-.528 1.218-.514.48-1.371.48-.867 0-1.383-.48-.515-.48-.515-1.218m9.691 6.011V24h-3.375V11.32h3.164zm-.492 3.188h-.914q0-1.406.363-2.531.363-1.137 1.02-1.934.656-.81 1.558-1.23.915-.434 2.039-.434.891 0 1.629.258.739.258 1.266.82.539.563.82 1.488.294.926.293 2.262V24h-3.398v-8.098q0-.843-.235-1.312a1.3 1.3 0 0 0-.691-.656q-.445-.2-1.101-.2-.68 0-1.184.27-.493.27-.82.75-.316.469-.481 1.101a5.4 5.4 0 0 0-.164 1.36m18.129 4.02V6h3.398v18h-3.058zm-8.016-3.422v-.247q0-1.452.328-2.636.329-1.195.961-2.051a4.4 4.4 0 0 1 1.559-1.324q.925-.47 2.109-.47 1.114 0 1.946.47a4.15 4.15 0 0 1 1.429 1.336q.598.855.961 2.027.364 1.16.528 2.543V18q-.164 1.325-.528 2.46a7.4 7.4 0 0 1-.961 1.993q-.585.844-1.429 1.313t-1.969.468q-1.184 0-2.109-.48a4.5 4.5 0 0 1-1.547-1.348q-.621-.867-.95-2.039a9.5 9.5 0 0 1-.328-2.555m3.375-.247v.247q0 .785.118 1.464.128.68.41 1.207.292.516.75.809.468.282 1.136.281.868 0 1.43-.387.562-.397.856-1.09.305-.69.351-1.593v-1.535a5.5 5.5 0 0 0-.211-1.325 2.9 2.9 0 0 0-.492-1.019 2.2 2.2 0 0 0-.797-.656q-.468-.235-1.113-.235-.657 0-1.125.305a2.2 2.2 0 0 0-.762.809q-.28.515-.422 1.218-.129.691-.129 1.5m16.512 6.668q-1.476 0-2.648-.468a5.8 5.8 0 0 1-1.993-1.325 5.9 5.9 0 0 1-1.242-1.957 6.6 6.6 0 0 1-.433-2.39v-.469q0-1.44.41-2.637a6.2 6.2 0 0 1 1.172-2.074 5.1 5.1 0 0 1 1.875-1.348q1.101-.48 2.484-.48 1.348 0 2.391.445a4.7 4.7 0 0 1 1.746 1.266 5.5 5.5 0 0 1 1.078 1.969q.363 1.136.363 2.53v1.407h-10.078v-2.25h6.762v-.258q0-.702-.258-1.254a2 2 0 0 0-.75-.89q-.504-.328-1.289-.328-.667 0-1.149.293-.48.292-.785.82a4.5 4.5 0 0 0-.445 1.242 8 8 0 0 0-.141 1.547v.469q0 .761.211 1.406.224.644.621 1.113.41.47.985.727.585.258 1.324.258.914 0 1.699-.352a3.7 3.7 0 0 0 1.371-1.09l1.641 1.782q-.399.574-1.09 1.101-.68.527-1.641.867-.96.328-2.191.328m10.5-10.148V24h-3.375V11.32h3.176zm3.82-2.848-.058 3.13a8 8 0 0 0-.598-.06 6 6 0 0 0-.621-.035q-.716 0-1.242.188a2.2 2.2 0 0 0-.867.527q-.34.352-.516.856a4.2 4.2 0 0 0-.187 1.148l-.68-.21q0-1.231.246-2.262.246-1.043.715-1.817.48-.773 1.172-1.195.691-.422 1.582-.422.281 0 .574.047.293.035.48.105"/></svg>