<svg xmlns="http://www.w3.org/2000/svg" width="134" height="32" fill="none" viewBox="0 0 134 32"><path fill="#fff" fill-rule="evenodd" d="M16.96 32c8.837 0 16-7.163 16-16s-7.163-16-16-16-16 7.163-16 16 7.164 16 16 16m4.992-24.547c.243-.863-.595-1.373-1.36-.828L9.916 14.232c-.83.59-.7 1.768.196 1.768h2.812v-.022h5.48l-4.466 1.576-1.968 6.993c-.243.863.595 1.373 1.36.828l10.677-7.607c.83-.59.699-1.768-.196-1.768h-4.264z" clip-rule="evenodd"/><path fill="#fff" d="M54.824 21.258V24H42.73v-2.742zm-.176-12.363L44.288 24h-2.472v-2.016L52.257 6.937h2.39zM53.44 6.938V9.69H41.828V6.937zm2.613 10.851v-.246q0-1.395.399-2.566a5.9 5.9 0 0 1 1.16-2.051 5.2 5.2 0 0 1 1.875-1.348q1.113-.492 2.554-.492 1.442 0 2.567.492 1.125.48 1.887 1.348a5.8 5.8 0 0 1 1.172 2.05q.398 1.172.398 2.567v.246q0 1.383-.398 2.566a6 6 0 0 1-1.172 2.051 5.2 5.2 0 0 1-1.875 1.348q-1.114.48-2.555.48t-2.567-.48a5.3 5.3 0 0 1-1.886-1.348 6.1 6.1 0 0 1-1.16-2.05 8 8 0 0 1-.399-2.567m3.375-.246v.246q0 .796.14 1.488.142.691.446 1.22.316.514.82.808.504.293 1.23.293.704 0 1.208-.293.503-.293.809-.809.304-.527.445-1.219.152-.69.152-1.488v-.246q0-.774-.152-1.453a3.8 3.8 0 0 0-.457-1.219 2.27 2.27 0 0 0-.809-.844q-.504-.304-1.219-.304-.714 0-1.218.304a2.4 2.4 0 0 0-.809.844 4 4 0 0 0-.445 1.219 7 7 0 0 0-.14 1.453m10.172.246v-.246q0-1.395.398-2.566a5.9 5.9 0 0 1 1.16-2.051 5.2 5.2 0 0 1 1.876-1.348q1.113-.492 2.554-.492 1.442 0 2.567.492 1.125.48 1.886 1.348a5.8 5.8 0 0 1 1.172 2.05q.399 1.172.399 2.567v.246q0 1.383-.399 2.566a6 6 0 0 1-1.171 2.051 5.2 5.2 0 0 1-1.876 1.348q-1.113.48-2.554.48-1.442 0-2.567-.48a5.3 5.3 0 0 1-1.886-1.348 6.1 6.1 0 0 1-1.16-2.05 8 8 0 0 1-.399-2.567m3.375-.246v.246q0 .796.14 1.488.141.691.446 1.22.315.514.82.808.504.293 1.23.293.704 0 1.208-.293t.808-.809q.305-.527.446-1.219.152-.69.152-1.488v-.246q0-.774-.152-1.453a3.8 3.8 0 0 0-.457-1.219 2.27 2.27 0 0 0-.809-.844q-.504-.304-1.219-.304-.714 0-1.218.304a2.4 2.4 0 0 0-.809.844 4 4 0 0 0-.445 1.219q-.14.68-.14 1.453m14.086-3.598V24h-3.387V11.32h3.176zm-.469 3.27h-.937q0-1.324.316-2.438.328-1.125.95-1.945a4.36 4.36 0 0 1 1.558-1.289q.926-.457 2.144-.457.845 0 1.547.258a3 3 0 0 1 1.207.785q.516.527.797 1.383.282.843.282 2.027V24h-3.375v-8.086q0-.867-.235-1.336a1.33 1.33 0 0 0-.668-.656q-.42-.188-1.02-.188-.656 0-1.148.27-.48.27-.797.75-.316.469-.468 1.101a5.8 5.8 0 0 0-.153 1.36m7.547-.387-1.207.152q0-1.242.305-2.308.316-1.067.926-1.875.62-.81 1.535-1.254.914-.457 2.11-.457.913 0 1.663.27.75.257 1.278.832.538.562.82 1.476.293.915.293 2.238V24h-3.387v-8.098q0-.878-.234-1.336-.223-.468-.657-.644-.421-.188-1.007-.188-.61 0-1.067.246a2.1 2.1 0 0 0-.761.657q-.306.422-.457.984-.153.551-.153 1.207m16.172 7.406q-1.476 0-2.648-.468a5.8 5.8 0 0 1-1.993-1.325 5.9 5.9 0 0 1-1.242-1.957 6.6 6.6 0 0 1-.433-2.39v-.469q0-1.44.41-2.637a6.2 6.2 0 0 1 1.172-2.074 5.1 5.1 0 0 1 1.875-1.348q1.101-.48 2.484-.48 1.347 0 2.391.445a4.7 4.7 0 0 1 1.746 1.266 5.5 5.5 0 0 1 1.078 1.969q.363 1.136.363 2.53v1.407h-10.078v-2.25h6.762v-.258q0-.702-.258-1.254a2 2 0 0 0-.75-.89q-.504-.328-1.289-.328-.667 0-1.149.293-.48.292-.785.82a4.5 4.5 0 0 0-.445 1.242 8 8 0 0 0-.141 1.547v.469q0 .761.211 1.406.223.644.621 1.113.41.47.985.727.585.258 1.324.258.914 0 1.699-.352a3.7 3.7 0 0 0 1.371-1.09l1.641 1.782q-.399.574-1.09 1.101-.68.527-1.641.867-.96.328-2.191.328m10.5-10.148V24h-3.375V11.32h3.176zm3.82-2.848-.058 3.13a8 8 0 0 0-.598-.06 6 6 0 0 0-.621-.035q-.716 0-1.242.188a2.2 2.2 0 0 0-.867.527q-.34.352-.516.856a4.2 4.2 0 0 0-.188 1.148l-.679-.21q0-1.231.246-2.262.246-1.043.715-1.817.48-.773 1.172-1.195.691-.422 1.582-.422.281 0 .574.047.293.035.48.105m4.969 2.848V24h-3.375V11.32h3.176zm3.82-2.848-.058 3.13a8 8 0 0 0-.598-.06 6 6 0 0 0-.621-.035q-.716 0-1.242.188a2.2 2.2 0 0 0-.867.527q-.34.352-.516.856a4.2 4.2 0 0 0-.187 1.148l-.68-.21q0-1.231.246-2.262.246-1.043.715-1.817.48-.773 1.172-1.195.691-.422 1.582-.422.281 0 .574.047.292.035.48.105"/></svg>