<svg xmlns="http://www.w3.org/2000/svg" width="126" height="32" fill="none" viewBox="0 0 126 32"><path fill="#fff" fill-rule="evenodd" d="m.96 16.348.002-.16.003-.16.005-.16.006-.161.009-.16.01-.161.01-.16.014-.16.015-.161.016-.16.018-.16.02-.16.02-.16.024-.16.025-.16.026-.159.028-.159.03-.159.03-.158.033-.159.035-.158.036-.158.037-.158.04-.157.04-.157.043-.157.045-.156.045-.156.048-.155.049-.155.05-.155.053-.155.054-.153.055-.154.057-.153.06-.152.06-.152.061-.151.064-.15.065-.151.066-.15.068-.149.07-.148.071-.148.073-.147.074-.147.076-.146.077-.145.08-.144.08-.144.082-.143.083-.142.085-.142.086-.14.088-.14.09-.14.09-.138.092-.137.094-.137.095-.136.096-.135.098-.133.1-.134.1-.132.103-.13.103-.131.105-.13.106-.128.108-.127.109-.126.11-.126.112-.124.113-.123.114-.122.116-.121.117-.12.118-.12.119-.117.12-.117.123-.115.123-.114.124-.114.125-.112.127-.11.128-.11.13-.109.13-.107.13-.106.133-.104.134-.104.135-.102.136-.101.137-.1.138-.098.139-.097.14-.095.14-.095.143-.093.143-.091.145-.09.145-.09.146-.087.147-.086.148-.085.149-.083.15-.082.15-.08.152-.08.152-.077.154-.076.154-.074.155-.073.156-.072.156-.07.158-.068.158-.067.159-.066.16-.064.16-.062.16-.061.162-.06.163-.057.163-.056.164-.055.164-.053.165-.052.165-.05.166-.048.167-.046.167-.045.168-.044.168-.041.168-.04.17-.04.17-.036.17-.035.17-.034.17-.032.172-.03.172-.028.172-.027.172-.026.173-.023.173-.022.173-.02.173-.019.174-.016.174-.015.174-.014.175-.011.938-.054.053 4.519h.29l.13.003.13.003.129.005.13.007.129.007.13.009.13.01.129.011.13.013.129.014.13.015.129.016.129.018.13.019.128.02.129.021.129.023.128.024.128.026.128.026.128.028.128.03.128.03.127.031.127.033.127.035.126.035.126.037.126.038.125.04.125.04.125.041.125.043.124.045.123.045.123.047.123.048.123.049.122.05.121.052.121.053.12.054.12.055.12.057.12.057.118.06.118.06.117.06.117.063.116.064.116.065.115.066.114.067.114.068.113.07.112.07.112.072.111.073.11.074.11.075.11.076.108.077.107.079.107.08.106.08.105.081.105.083.103.084.103.085.102.086.101.087.1.088.1.089.099.09.098.091.096.092.096.093.096.094.094.095.093.096.092.097.091.098.09.1.09.099.089.1.087.102.087.103.085.103.084.105.084.105.082.106.081.107.08.108.08.108.078.11.077.11.076.111.074.112.074.113.073.114.071.114.07.115.07.115.067.117.067.117.066.118.064.119.064.119.062.12.06.12.06.122.059.122.057.123.056.123.055.123.053.125.053.125.05.126.05.126.049.126.047.128.046.127.045.129.043.128.042.13.04.13.04.13.038.13.037.131.036.132.034.132.032.132.032.133.03.133.029.133.027.134.026.134.025.134.023.135.022.135.02.135.02.136.018.135.016.137.015.136.014.136.012.137.01.137.01.137.008.137.007.137.005.138.004.137.003.138v.276l-.002.138-.003.138-.005.137-.006.139-.007.137-.01.139-.01.137-.011.138-.014.138-.014.138-.016.138-.018.138-.018.137-.02.138-.022.137-.024.137-.024.137-.026.137-.027.136-.03.137-.03.136-.03.136-.034.136-.034.135-.036.135-.037.135-.04.135-.04.134-.04.134-.043.133-.045.134-.045.132-.047.133-.049.132-.05.132-.05.13-.053.132-.054.13-.055.13-.056.13-.058.128-.06.128-.06.128-.062.128-.064.126-.064.126-.066.126-.067.125-.069.125-.07.123-.071.123-.073.123-.073.122-.075.121-.077.12-.077.12-.08.12-.08.118-.08.118-.083.117-.084.116-.085.115-.087.115-.087.114-.089.113-.09.112-.09.111-.093.11-.094.11-.094.11-.096.107-.097.107-.098.106-.1.106-.1.104-.101.103-.103.103-.104.101-.104.1-.106.1-.107.099-.108.097-.109.096-.11.096-.111.094-.112.094-.113.092-.114.091-.115.09-.117.09-.117.087-.118.087-.119.086-.12.085-.12.083-.122.082-.123.081-.123.08-.124.08-.126.077-.126.076-.127.076-.127.074-.129.073-.13.071-.13.07-.13.07-.132.067-.133.067-.133.065-.134.064-.134.063-.136.061-.136.06-.136.06-.138.057-.138.056-.138.055-.14.054-.14.052-.14.05-.141.05-.142.048-.142.047-.143.045-.143.044-.144.043-.144.041-.145.04-.145.039-.146.037-.146.035-.146.034-.147.033-.148.032-.147.03-.149.028-.148.027-.149.025-.15.025-.149.022-.15.022-.15.02-.15.018-.15.016-.151.016-.151.014-.151.012-.152.011-.152.01-.151.008-.152.006-.152.005-.153.003-.152.002-.152.001-.152-.001-.153-.002-.153-.004-.152-.006-.153-.007-.152-.008-.153-.01-.152-.012-.153-.013-.152-.014-.152-.016-.153-.017-.152-.02-.152-.02-.151-.022-.152-.023-.152-.025-.15-.027-.152-.028-.15-.03-.151-.03-.15-.032-.15-.034-.15-.036-.15-.037-.15-.038-.148-.04-.149-.041-.148-.043-.148-.044-.147-.046-.147-.047-.147-.049-.146-.05-.145-.052-.146-.053L11 30.97l-.145-.056-.143-.057-.143-.06-.143-.06-.142-.061-.142-.063-.14-.064-.141-.066-.14-.068-.139-.068-.138-.07-.138-.072-.137-.073-.136-.074-.136-.076-.135-.077-.134-.078-.134-.08-.133-.08-.132-.083-.13-.083-.131-.085-.13-.087-.128-.087-.128-.09-.127-.09-.126-.091-.126-.093-.124-.094-.123-.095-.123-.097-.122-.097-.12-.1-.12-.1-.119-.101-.117-.103-.117-.104-.116-.105-.114-.106-.114-.107-.113-.109-.111-.11-.11-.11-.11-.112-.108-.113L5.114 27l-.106-.116-.105-.116-.104-.118-.102-.118-.101-.12-.1-.12-.1-.122-.097-.123-.097-.123-.095-.125-.094-.126-.093-.126-.092-.128-.09-.128-.089-.13-.088-.13-.086-.132-.085-.132-.084-.133-.083-.134-.08-.135-.08-.135-.079-.137-.077-.137-.076-.138-.074-.14-.073-.14-.071-.14-.07-.141-.069-.142-.067-.143-.066-.143-.064-.144-.063-.145-.062-.146-.06-.146-.058-.147-.057-.147-.056-.149-.054-.148-.052-.15-.051-.15-.05-.15-.048-.15-.046-.152-.045-.152-.043-.153-.042-.153-.04-.153-.04-.154-.036-.155-.036-.154-.034-.156-.032-.155-.031-.156-.03-.157-.027-.156-.026-.157-.025-.158-.023-.157-.02-.158-.02-.159-.018-.158-.017-.159-.015-.159-.013-.159-.011-.16-.01-.159-.009-.16-.006-.16-.005-.16-.004-.16-.001-.16zM16.463 4.614l-.037-3.08-.034.003-.16.017-.158.018-.158.02-.158.022-.158.023-.158.024-.157.027-.157.027-.156.03-.156.03-.156.032-.155.034-.155.035-.154.037-.154.038-.154.04-.153.041-.152.043-.152.044-.152.046-.15.047-.151.048-.15.05-.149.052-.149.053-.147.054-.148.056-.146.057-.146.058-.146.06-.144.061-.144.063-.144.064-.142.066-.142.067-.141.068-.14.07-.14.07-.138.072-.138.074-.137.075-.136.076-.136.077-.134.079-.134.08-.132.081-.132.082-.131.084-.13.085-.13.087-.127.087-.127.089-.126.09-.125.09-.125.093-.123.093-.122.094-.121.096-.12.097-.12.098-.117.099-.117.1-.116.101-.114.103-.114.103-.112.105-.112.105-.11.107-.109.107-.108.109-.107.11-.105.11-.104.111-.104.113-.101.114-.101.114-.1.115-.098.116-.097.118-.096.118-.094.119-.093.12-.092.12-.091.121-.09.123-.088.123-.086.124-.086.124-.084.126-.083.126-.081.127-.08.128-.08.128-.077.129-.076.13-.075.13-.073.131-.072.132-.07.133-.07.133-.067.133-.067.135-.065.134-.063.136-.062.136-.06.136-.06.137-.058.138-.056.138-.055.138-.054.139-.052.14-.05.14-.05.14-.047.14-.046.141-.045.142-.043.141-.042.143-.04.142-.04.143-.037.143-.036.143-.034.144-.033.144-.031.144-.03.144-.029.145-.026.145-.026.145-.024.145-.022.145-.021.146-.02.145-.017.146-.017.146-.015.146-.013.145-.012.146-.01.146-.01.146-.007.146-.006.147-.004.146-.003.146-.001.146v.145l.001.146.003.146.005.145.006.146.008.145.009.145.01.145.012.145.014.145.015.144.016.145.018.144.02.143.02.144.022.143.024.143.025.142.027.143.028.141.03.142.03.141.033.14.033.141.036.14.036.14.038.139.04.139.04.138.043.138.043.137.045.137.047.136.047.136.05.135.05.134.052.134.053.134.054.133.056.132.057.131.059.132.06.13.06.13.063.129.064.128.065.128.066.127.067.126.07.125.07.125.07.124.073.123.073.123.075.122.076.12.078.12.078.12.08.118.08.118.083.116.083.116.084.115.085.114.087.113.088.113.088.11.09.111.091.11.092.108.093.108.094.106.095.106.096.104.098.104.098.103.099.101.1.1.101.1.102.099.103.097.104.096.105.096.106.094.107.093.107.092.109.09.11.09.11.09.11.087.113.086.112.085.114.085.114.082.115.082.116.08.117.08.117.078.118.077.12.076.119.075.12.073.121.072.122.071.122.07.123.068.123.068.125.066.124.064.126.064.126.062.126.061.127.06.128.058.128.057.129.056.129.054.13.054.13.052.13.05.131.05.132.048.131.046.133.046.132.044.133.042.134.042.134.04.134.038.134.038.135.036.135.035.135.033.135.032.136.03.136.03.136.028.137.027.136.025.137.024.137.022.137.022.138.02.137.018.138.017.137.016.138.014.138.013.137.012.138.01.138.01.138.007.138.006.138.005.137.004.138.002.138.001h.138l.137-.002.138-.003.137-.005.137-.006.137-.007.137-.009.137-.01.137-.01.136-.013.136-.014.136-.015.136-.017.136-.018.135-.019.135-.02.134-.022.135-.023.134-.025.134-.025.133-.027.133-.029.133-.03.132-.03.132-.032.131-.034.131-.034.13-.036.131-.037.13-.039.129-.04.129-.04.128-.043.128-.043.127-.045.127-.046.126-.047.126-.048.125-.05.124-.05.124-.052.123-.053.123-.054.122-.056.121-.056.12-.058.12-.059.12-.06.119-.06.118-.063.117-.064.117-.064.115-.066.116-.066.114-.068.113-.069.113-.07.112-.07.112-.073.11-.073.11-.074.108-.075.108-.077.107-.077.107-.078.105-.08.104-.08.104-.08.103-.083.102-.083.1-.084.1-.085.1-.086.098-.087.097-.087.096-.089.096-.09.094-.09.093-.091.092-.092.092-.093.09-.094.09-.095.087-.095.088-.096.086-.097.085-.098.084-.099.083-.1.082-.1.08-.1.08-.102.08-.102.077-.103.076-.104.076-.104.074-.106.073-.105.072-.107.07-.107.07-.107.07-.109.067-.109.066-.11.065-.11.064-.11.063-.111.062-.112.06-.112.06-.113.057-.114.057-.113.056-.115.054-.114.053-.116.052-.115.051-.116.05-.117.048-.117.047-.117.046-.118.045-.118.043-.119.042-.119.041-.119.04-.12.038-.12.037-.12.036-.12.035-.12.033-.122.032-.121.031-.121.03-.122.028-.122.027-.122.026-.123.025-.122.023-.123.022-.122.02-.123.02-.123.018-.124.017-.123.016-.123.014-.124.013-.123.012-.124.01-.123.01-.124.008-.123.007-.124.005-.124.004-.124.003-.123.002-.124v-.247l-.003-.123-.003-.123-.005-.123-.006-.123-.007-.123-.009-.123-.01-.122-.01-.123-.012-.122-.014-.122-.015-.121-.015-.122-.018-.121-.018-.121-.02-.121-.02-.12-.023-.12-.023-.12-.024-.12-.026-.12-.027-.119-.028-.118-.03-.119-.03-.118-.032-.117-.033-.117-.034-.117-.035-.117-.036-.115-.038-.116-.039-.115-.04-.115-.04-.114-.043-.114-.043-.113-.045-.113-.045-.112-.047-.111-.048-.112-.049-.11-.05-.11-.05-.11-.053-.109-.053-.108-.055-.108-.055-.107-.057-.107-.057-.106-.059-.105-.06-.104-.06-.104-.062-.104-.063-.102-.064-.102-.064-.102-.066-.1-.067-.1-.067-.1-.07-.098-.069-.097-.07-.097-.072-.096-.072-.096-.074-.095-.074-.093-.076-.093-.076-.093-.077-.091-.078-.09-.079-.09-.08-.09-.08-.088-.081-.087-.082-.086-.084-.086-.083-.085-.085-.084-.086-.083-.086-.082-.087-.08-.088-.081-.089-.08-.089-.078-.09-.077-.091-.077-.092-.076-.092-.074-.093-.074-.094-.073-.094-.071-.095-.071-.096-.07-.096-.069-.097-.068-.098-.067-.098-.066-.1-.064-.099-.064-.1-.063-.1-.062-.102-.06-.101-.06-.103-.059-.103-.058-.103-.056-.104-.056-.104-.054-.105-.054-.105-.052-.106-.051-.107-.05-.106-.05-.108-.048-.107-.047-.111-.047-.105-.043-.11-.044-.108-.043-.11-.041-.11-.04-.11-.04-.11-.038-.111-.037-.112-.036-.111-.035-.112-.034-.112-.032-.112-.032-.113-.03-.112-.03-.113-.028-.113-.027-.114-.026-.113-.025-.114-.023-.114-.023-.114-.021-.114-.02-.114-.02-.115-.017-.114-.017-.115-.016-.115-.014-.115-.014-.114-.012-.115-.011-.115-.01-.115-.01-.116-.007-.114-.007-.115-.005-.116-.004-.114-.004-.115-.002h-.253l.036 3.058h.15l.083.001.085.002.084.003.084.004.084.005.084.005.084.006.084.007.084.008.084.01.085.009.084.01.084.012.084.012.084.013.083.014.084.014.084.016.084.016.083.018.084.018.083.018.083.02.083.02.083.022.082.022.083.023.082.024.083.025.082.026.081.026.082.027.082.028.08.03.081.029.081.03.08.032.08.032.08.033.08.034.08.034.079.036.078.036.079.037.078.038.078.038.077.04.077.04.077.041.076.042.076.042.076.044.075.044.075.045.075.046.074.046.073.047.073.048.073.049.072.05.072.05.072.05.07.053.07.052.07.053.07.054.07.055.068.055.068.057.067.056.067.058.066.058.066.06.065.059.065.06.064.061.063.062.063.062.062.063.062.064.061.064.06.065.06.066.06.066.058.067.058.068.057.068.057.069.056.07.055.07.055.07.054.071.053.072.052.072.052.073.051.074.05.074.05.075.05.075.047.075.048.077.046.076.046.078.045.077.045.079.043.079.043.079.042.08.042.08.04.08.04.082.039.081.038.082.037.083.036.083.036.083.034.084.034.084.034.085.032.085.031.085.03.086.03.086.029.086.028.087.027.087.026.087.025.088.025.088.023.088.023.09.021.088.021.09.02.089.02.09.017.09.017.09.017.09.015.091.014.091.014.091.012.091.012.092.01.092.01.092.01.092.007.092.007.092.006.093.005.092.004.093.003.093.002.093.002.093v.093l-.001.093-.002.093-.002.093-.004.094-.005.093-.005.093-.006.094-.008.093-.008.094-.01.093-.01.093-.012.094-.012.093-.013.093-.014.093-.015.093-.017.093-.017.093-.018.093-.02.092-.02.093-.02.093-.022.092-.023.092-.024.092-.025.092-.026.091-.026.091-.028.092-.029.09-.03.092-.03.09-.032.09-.033.09-.033.09-.034.09-.036.089-.036.089-.037.089-.039.088-.039.088-.04.088-.04.087-.043.087-.043.087-.044.086-.044.086-.046.086-.046.085-.048.085-.048.084-.05.084-.05.084-.05.083-.053.082-.052.083-.054.081-.055.082-.055.08-.057.08-.057.08-.058.08-.059.079-.06.078-.06.078-.061.077-.063.076-.063.076-.064.076-.065.075-.065.074-.067.074-.067.073-.068.072-.069.072-.07.071-.07.071-.07.07-.073.07-.072.068-.074.068-.074.067-.075.067-.075.066-.077.065-.077.064-.078.064-.078.063-.08.063-.08.061-.08.061-.081.06-.082.06-.083.058-.083.058-.084.057-.085.056-.085.056-.086.054-.086.054-.087.053-.088.052-.088.052-.089.05-.09.05-.09.049-.09.048-.091.047-.092.046-.092.046-.093.044-.093.044-.094.042-.094.042-.095.041-.095.04-.096.04-.096.037-.096.038-.097.036-.098.036-.098.034-.098.034-.099.032-.1.032-.099.03-.1.03-.1.03-.1.027-.102.027-.1.026-.103.024-.102.024-.102.023-.103.022-.102.021-.104.02-.103.019-.104.018-.104.017-.104.016-.105.014-.104.014-.105.013-.105.012-.105.01-.106.01-.105.01-.106.007-.106.006-.106.006-.106.005-.107.003-.106.003-.107.001h-.213l-.107-.002-.106-.003-.107-.003-.107-.005-.107-.006-.107-.007-.107-.008-.106-.01-.107-.01-.107-.01-.107-.013-.106-.013-.107-.015-.106-.015-.107-.017-.106-.017-.106-.019-.106-.02-.106-.02-.106-.022-.106-.023-.105-.024-.106-.024-.105-.026-.104-.027-.105-.029-.105-.029-.104-.03-.104-.031-.104-.032-.103-.034-.103-.034-.103-.035-.103-.037-.102-.037-.102-.039-.102-.04-.1-.04-.102-.041-.1-.043-.1-.043-.1-.045-.1-.046-.099-.046-.098-.048-.098-.048-.098-.05-.097-.05-.097-.052-.096-.053-.096-.053-.096-.055-.095-.055-.094-.057-.094-.057-.093-.058-.093-.06-.092-.06-.091-.061-.091-.062-.091-.063-.09-.064-.09-.066-.088-.065-.088-.067-.087-.068-.087-.068-.086-.07-.085-.07-.085-.072-.084-.072-.084-.073-.082-.073-.082-.075-.082-.076-.08-.076-.08-.077-.079-.078-.078-.08-.078-.08-.077-.08-.076-.08-.075-.083-.074-.083-.074-.084-.072-.084-.072-.085-.071-.086-.07-.087-.07-.088-.069-.088-.067-.089-.067-.09-.066-.09-.065-.09-.064-.093-.064-.092-.062-.093-.061-.094-.06-.095-.06-.095-.059-.095-.058-.097-.056-.097-.056-.097-.055-.099-.054-.098-.052-.1-.052-.1-.05-.1-.05-.101-.05-.102-.047-.102-.047-.103-.046-.103-.044-.104-.044-.104-.043-.105-.041-.105-.04-.106-.04-.106-.039-.107-.037-.107-.036-.107-.035-.108-.034-.109-.033-.108-.032-.11-.03-.109-.03-.11-.029-.11-.027-.11-.027-.111-.025-.111-.024-.112-.023-.112-.021-.112-.021-.112-.02-.113-.018-.113-.017-.113-.016-.113-.015-.114-.014-.114-.012-.114-.012-.114-.01-.114-.009-.115-.008-.114-.007-.115-.005-.115-.005-.115-.003-.115-.002-.116v-.231l.001-.115.003-.116.004-.115.005-.116.007-.116.007-.115.009-.116.01-.116.01-.115.013-.116.013-.115.015-.116.016-.115.017-.115.018-.115.02-.115.02-.115.022-.115.023-.115.024-.114.026-.114.026-.114.028-.114.03-.114.03-.114.03-.113.033-.113.034-.112.035-.113.036-.112.037-.112.038-.112.04-.11.04-.112.043-.11.043-.11.044-.11.045-.11.047-.11.047-.108.05-.108.049-.108.051-.108.052-.107.054-.106.054-.107.056-.105.056-.105.058-.105.06-.104.06-.104.06-.103.062-.103.064-.102.064-.1.066-.102.066-.1.068-.1.068-.099.07-.098.07-.098.073-.097.072-.097.074-.096.075-.095.076-.094.077-.094.078-.093.079-.093.08-.091.08-.091.083-.09.082-.09.084-.088.085-.088.086-.087.086-.087.088-.085.088-.085.09-.084.09-.083.092-.082.092-.081.093-.08.094-.08.094-.079.096-.078.096-.077.098-.076.098-.075.099-.074.1-.073.1-.073.102-.071.102-.07.103-.07.104-.068.104-.068.105-.066.106-.066.107-.064.107-.064.109-.062.108-.062.11-.06.11-.06.111-.058.111-.057.113-.056.112-.055.114-.054.114-.053.115-.052.115-.05.116-.05.116-.049.117-.047.118-.046.118-.046.118-.044.12-.043.119-.041.12-.04.12-.04.122-.038.121-.038.122-.035.122-.035.123-.034.123-.032.124-.031.124-.03.124-.029.125-.028.125-.026.125-.025.126-.024.126-.023.126-.021.127-.02.127-.02.127-.017.127-.017zm.054 4.535-.037-3.091-.104.014-.113.017-.112.018-.111.019-.112.02-.112.021-.11.022-.111.024-.11.024-.11.026-.11.026-.11.028-.109.028-.104.029-.112.032-.108.031-.108.033-.107.034-.106.035-.106.036-.106.037-.105.038-.105.038-.104.04-.104.041-.104.042-.103.043-.102.044-.102.045-.1.045-.102.047-.1.048-.1.049-.099.05-.098.05-.098.051-.097.053-.097.053-.096.054-.096.055-.095.056-.094.057-.093.058-.093.059-.092.06-.092.06-.09.061-.09.062-.09.063-.089.064-.088.064-.087.066-.087.066-.086.067-.085.068-.084.069-.084.069-.082.07-.082.071-.082.072-.08.072-.08.073-.078.074-.079.075-.077.075-.076.076-.076.077-.074.077-.074.079-.073.078-.072.08-.071.08-.07.08-.07.082-.069.082-.068.082-.066.083-.066.084-.065.085-.064.085-.064.085-.062.086-.061.087-.06.087-.06.087-.058.089-.058.088-.057.09-.055.09-.055.09-.054.09-.052.091-.052.092-.051.092-.05.092-.049.093-.048.093-.046.094-.046.094-.045.094-.044.095-.043.095-.042.096-.04.096-.04.096-.04.096-.037.097-.037.097-.035.098-.035.098-.034.097-.033.099-.031.098-.03.099-.03.099-.029.099-.027.099-.027.1-.025.1-.025.1-.023.1-.022.1-.021.1-.02.1-.02.1-.018.102-.017.1-.016.101-.015.101-.014.101-.013.102-.011.1-.011.102-.01.101-.009.102-.007.1-.007.102-.005.101-.005.102-.003.1-.003.102v.101l-.001.101v.101l.002.101.003.1.004.101.005.101.006.1.006.1.008.101.01.1.01.1.01.1.012.1.013.098.014.1.015.098.016.099.017.099.018.098.02.098.02.097.02.098.022.097.023.097.024.096.025.096.026.096.027.096.028.095.028.095.03.095.03.094.032.094.033.093.033.093.035.093.035.092.036.092.038.091.038.09.039.091.04.09.04.09.042.089.042.089.044.088.044.087.045.088.046.086.047.086.048.086.048.085.05.085.05.083.051.084.052.083.053.082.053.082.054.08.055.081.056.08.057.08.057.078.058.078.06.077.059.077.06.076.061.076.062.074.063.075.063.073.064.073.065.072.065.071.066.07.067.07.067.07.068.069.069.068.07.067.07.066.07.066.07.065.073.064.072.063.073.063.074.062.074.06.075.06.075.06.076.06.076.057.077.057.077.057.078.055.079.055.079.054.08.053.08.052.08.052.08.05.082.05.082.049.082.048.082.047.083.047.084.045.084.045.084.044.085.043.085.042.085.04.086.041.086.04.086.038.087.038.087.037.087.036.088.035.088.034.088.033.088.033.09.031.088.03.09.03.089.03.09.027.09.027.09.026.09.026.09.024.09.023.092.023.09.021.092.02.091.02.091.02.092.017.091.017.092.016.092.015.092.014.092.014.092.012.092.012.092.01.092.01.092.009.092.008.092.007.092.006.093.005.092.004.092.003.092.002.092.002h.183l.092-.001.092-.002.091-.003.092-.004.091-.005.091-.006.091-.006.091-.008.091-.008.09-.01.091-.01.09-.01.09-.013.09-.012.09-.014.09-.015.089-.015.089-.016.088-.017.089-.018.088-.02.088-.019.088-.02.087-.022.087-.022.087-.023.086-.024.087-.025.085-.025.086-.026.085-.028.085-.028.084-.029.084-.03.084-.03.083-.03.083-.033.083-.032.082-.034.082-.034.08-.035.082-.036.08-.037.08-.037.08-.039.078-.038.08-.04.077-.04.078-.042.077-.041.076-.043.077-.043.075-.044.075-.045.075-.045.074-.046.073-.047.073-.048.073-.048.071-.049.072-.05.07-.05.07-.05.07-.051.069-.052.068-.053.068-.053.067-.054.067-.055.065-.055.066-.056.064-.056.064-.057.064-.057.062-.058.062-.059.062-.06.06-.059.06-.06.06-.061.059-.061.058-.062.057-.063.057-.062.056-.064.055-.064.054-.064.054-.065.053-.065.053-.066.051-.066.051-.067.05-.067.05-.068.049-.067.048-.069.047-.069.046-.069.046-.07.045-.07.044-.07.044-.07.043-.072.041-.071.042-.072.04-.072.04-.073.038-.072.038-.073.038-.074.036-.073.036-.075.034-.074.035-.075.033-.074.032-.075.032-.076.03-.075.03-.076.03-.076.028-.076.028-.077.027-.076.026-.077.025-.077.024-.077.024-.078.023-.077.022-.078.02-.078.021-.078.02-.078.018-.078.018-.078.017-.079.016-.078.016-.079.014-.078.014-.08.013-.078.012-.079.01-.079.011-.079.01-.079.009-.079.008-.078.007-.08.006-.079.006-.079.004-.079.004-.078.003-.08.002-.078.002-.079v-.236l-.003-.078-.002-.079-.004-.078-.004-.078-.005-.078-.006-.078-.006-.078-.008-.078-.008-.077-.01-.078-.009-.077-.01-.077-.012-.077-.012-.076-.013-.077-.014-.076-.014-.076-.015-.076-.016-.076-.017-.075-.017-.075-.019-.075-.019-.075-.02-.074-.02-.074-.021-.074-.022-.074-.023-.073-.024-.073-.024-.072-.025-.073-.025-.072-.027-.072-.027-.071-.027-.071-.029-.07-.03-.071-.029-.07-.03-.07-.032-.07-.032-.068-.032-.069-.034-.068-.034-.067-.034-.068-.036-.067-.035-.066-.037-.066-.037-.066-.038-.065-.039-.065-.039-.064-.04-.064-.04-.064-.04-.063-.042-.062-.043-.062-.042-.062-.044-.06-.044-.061-.044-.06-.045-.06-.046-.06-.046-.058-.047-.058-.047-.057-.048-.057-.049-.057-.049-.056-.05-.055-.05-.055-.05-.054-.05-.054-.052-.053-.052-.053-.053-.052-.053-.052-.053-.05-.054-.051-.055-.05-.054-.049-.056-.049-.056-.048-.056-.047-.056-.047-.057-.046-.058-.046-.058-.045-.058-.044-.058-.044-.06-.043-.06-.042-.059-.042-.06-.041-.06-.04-.061-.04-.062-.04-.061-.039-.062-.038-.062-.037-.063-.037-.063-.036-.063-.035-.063-.035-.064-.034-.064-.034-.065-.032-.064-.033-.065-.03-.065-.032-.066-.03-.065-.03-.066-.028-.066-.028-.067-.027-.066-.027-.066-.026-.067-.025-.068-.025-.067-.024-.067-.023-.068-.022-.068-.022-.067-.021-.068-.02-.069-.02-.068-.02-.069-.018-.068-.018-.069-.017-.069-.016-.069-.016-.068-.015-.07-.014-.069-.014-.069-.012-.069-.012-.07-.012-.069-.01-.069-.01-.07-.01-.069-.009-.07-.008-.069-.007-.069-.006-.07-.006-.069-.006-.07-.004-.069-.004-.069-.003-.07-.003-.068-.001-.07-.001h-.116l.036 3.02h.061l.04.001.04.002.04.001.04.003.04.002.04.003.04.004.04.004.04.004.04.004.04.005.04.006.04.006.04.006.04.007.04.007.04.008.04.008.04.009.04.008.041.01.04.01.04.01.04.01.04.011.04.012.04.012.039.012.04.013.04.013.039.014.039.014.04.014.038.015.04.015.039.016.038.016.04.017.038.017.039.017.038.018.038.018.039.02.038.018.037.02.038.02.038.02.037.02.038.022.037.022.037.022.036.022.037.023.036.023.037.024.036.024.035.025.036.024.035.026.035.025.035.027.035.026.035.027.034.027.034.028.034.028.033.028.034.03.033.028.032.03.033.03.032.03.032.031.032.031.031.032.031.031.031.033.03.032.03.033.03.033.03.034.03.034.029.034.029.035.028.035.028.035.027.036.028.036.027.036.027.037.026.037.026.037.025.038.026.038.024.038.025.039.024.039.024.039.023.04.023.04.023.04.022.04.022.04.021.041.021.042.02.041.021.042.02.042.02.042.018.043.019.043.018.043.017.043.018.043.016.044.017.044.016.044.015.045.015.044.015.045.014.045.014.046.013.045.012.046.013.046.012.046.01.046.012.047.01.046.01.047.01.047.008.047.009.047.008.048.007.047.007.048.007.048.006.048.005.048.005.049.005.048.004.048.003.049.003.049.003.048.002.05.001.048.001.05v.147l-.001.05-.002.049-.002.049-.003.05-.003.049-.004.05-.004.049-.005.05-.005.05-.006.049-.006.05-.007.05-.008.049-.008.05-.008.049-.01.05-.009.05-.01.049-.01.05-.012.049-.012.05-.012.048-.013.05-.013.049-.014.05-.014.048-.015.05-.016.048-.016.049-.016.049-.017.049-.018.048-.018.048-.019.049-.019.048-.02.048-.02.048-.02.048-.022.047-.022.048-.022.047-.023.047-.024.047-.024.047-.024.047-.025.046-.026.046-.026.046-.026.046-.027.046-.028.045-.028.046-.029.044-.029.045-.03.045-.03.044-.03.044-.031.044-.032.043-.032.044-.033.043-.033.042-.034.043-.034.042-.034.042-.035.041-.036.042-.036.04-.036.041-.037.04-.038.04-.038.04-.038.04-.039.039-.039.038-.04.039-.04.038-.04.037-.042.038-.041.037-.042.036-.042.036-.043.036-.043.036-.044.035-.044.034-.045.034-.045.034-.045.034-.046.033-.046.032-.046.032-.047.032-.047.031-.048.031-.048.03-.049.03-.049.03-.049.03-.05.028-.05.028-.05.028-.05.027-.051.027-.051.026-.052.026-.052.025-.052.025-.053.024-.053.024-.053.023-.054.023-.053.023-.055.021-.054.022-.055.02-.055.02-.055.02-.056.02-.055.018-.056.019-.057.017-.056.017-.057.017-.057.016-.058.015-.057.015-.058.014-.058.014-.058.013-.058.013-.059.012-.059.011-.059.011-.059.01-.06.01-.059.01-.06.008-.06.008-.06.007-.06.007-.06.006-.06.006-.06.005-.061.004-.06.004-.062.003-.06.003-.062.002-.06.001-.062.001h-.123l-.061-.001-.062-.002-.061-.002-.062-.003-.061-.003-.062-.005-.062-.004-.061-.006-.062-.006-.062-.006-.062-.007-.061-.008-.062-.009-.062-.009-.061-.01-.062-.01-.062-.01-.061-.012-.062-.013-.061-.012-.061-.014-.062-.014-.06-.015-.062-.015-.061-.016-.061-.017-.06-.017-.062-.018-.06-.018-.06-.02-.061-.019-.06-.02-.06-.021-.06-.022-.06-.022-.06-.023-.059-.023-.06-.024-.058-.025-.059-.025-.059-.026-.058-.027-.058-.027-.058-.028-.058-.028-.058-.029-.057-.03-.057-.03-.057-.03-.056-.032-.056-.032-.057-.032-.055-.033-.056-.034-.055-.034-.055-.035-.054-.036-.054-.036L13 21.9l-.054-.037-.053-.038-.053-.039-.053-.039-.052-.039-.052-.04-.051-.04-.051-.042-.051-.041-.05-.043-.05-.043-.05-.043-.05-.044-.048-.044-.049-.045-.048-.046-.047-.045-.047-.047-.047-.047-.046-.047-.046-.049-.045-.048-.045-.05-.045-.049-.044-.05-.043-.05-.043-.051-.043-.052-.042-.052-.041-.052-.041-.053-.04-.053-.04-.054-.04-.055-.04-.054-.038-.055-.038-.056-.037-.056-.037-.056-.036-.057-.036-.058-.035-.057-.035-.058-.034-.059-.033-.059-.033-.06-.032-.059-.032-.06-.031-.06-.03-.061-.03-.061-.03-.062-.029-.062-.028-.062-.027-.063-.027-.063-.026-.063-.026-.063-.025-.064-.024-.064-.024-.065-.023-.065-.022-.065-.022-.065-.02-.066-.021-.066-.02-.066-.02-.066-.018-.067-.017-.067-.017-.067-.017-.068-.015-.067-.015-.068-.015-.068-.013-.069-.013-.068-.012-.069-.012-.069-.01-.069-.011-.069-.01-.07-.008-.069-.008-.07-.007-.07-.007-.07-.006-.07-.005-.07-.004-.07-.004-.07-.003-.071-.002-.071-.002-.07v-.214l.002-.07.002-.072.003-.071.004-.071.004-.072.005-.07.006-.072.007-.071.007-.072.008-.07.01-.072.009-.071.01-.072.011-.07.012-.072.013-.071.013-.071.014-.071.015-.07.016-.072.016-.07.017-.071.018-.07.019-.07.019-.071.02-.07.02-.07.023-.07.022-.07.023-.07.024-.069.024-.07.026-.068.026-.07.026-.068.028-.068.028-.069.029-.068.03-.067.03-.068.031-.067.032-.067.033-.067.033-.067.034-.066.035-.066.035-.066.037-.066.037-.065.037-.065.038-.064.04-.064.04-.064.04-.064.04-.063.043-.063.042-.062.043-.062.044-.062.045-.062.045-.06.046-.061.046-.06.047-.06.048-.06.049-.059.049-.058.05-.058.05-.058.051-.057.052-.057.053-.056.053-.056.053-.056.055-.054.054-.055.056-.054.056-.053.057-.053.057-.052.058-.052.058-.051.06-.051.06-.05.06-.05.06-.05.061-.048.062-.048.063-.047.063-.047.063-.047.064-.045.065-.045.065-.045.066-.044.066-.043.066-.043.068-.042.067-.041.068-.041.069-.04.069-.04.07-.039.07-.038.07-.037.07-.037.072-.037.072-.035.072-.035.073-.034.073-.034.073-.032.074-.033.075-.031.074-.03.075-.03.076-.03.075-.028.076-.028.077-.027.077-.027.077-.025.077-.025.078-.024.078-.024.079-.022.078-.022.08-.021.079-.02.08-.02.08-.02.08-.017.08-.017.08-.017.081-.016zm.993 5.808-.922.22-.054-4.567-.043.01-.066.015-.065.016-.065.017-.065.017-.064.018-.065.019-.063.019-.064.02-.064.02-.063.02-.063.022-.062.022-.063.023-.061.024-.062.024-.061.024-.061.025-.061.026-.06.026-.06.027-.06.027-.06.028-.058.028-.059.03-.058.029-.058.03-.057.03-.057.032-.057.031-.056.033-.056.032-.056.034-.055.033-.054.035-.055.034-.054.036-.053.035-.053.037-.053.036-.051.037-.052.038-.051.038-.051.039-.05.039-.05.04-.05.04-.048.04-.049.04-.048.042-.047.041-.047.042-.047.043-.046.043-.045.043-.045.044-.045.044-.044.044-.043.045-.043.045-.042.046-.042.046-.042.046-.04.047-.04.047-.04.047-.04.048-.039.048-.038.048-.037.049-.037.049-.037.049-.036.05-.035.05-.035.05-.034.05-.034.05-.033.052-.033.05-.032.052-.031.052-.031.052-.03.052-.03.053-.03.053-.028.053-.028.053-.027.053-.027.054-.026.053-.026.054-.025.054-.024.055-.024.054-.024.055-.022.055-.022.055-.022.055-.02.055-.02.055-.02.056-.02.056-.018.055-.018.056-.017.056-.017.056-.016.056-.016.057-.015.056-.014.057-.014.056-.013.057-.012.056-.012.057-.011.057-.01.056-.011.057-.01.057-.008.057-.009.057-.007.056-.007.057-.007.057-.006.057-.005.057-.005.057-.004.056-.003.057-.003.057-.003.057-.001.056-.002.057v.169l.002.056.001.056.003.057.003.056.003.055.004.056.005.056.005.055.006.056.006.055.007.055.008.055.008.055.008.055.01.054.009.055.01.054.011.054.011.054.012.054.013.053.013.053.013.053.014.053.014.053.016.052.015.053.016.052.017.051.017.052.018.051.018.051.019.051.019.05.02.051.02.05.02.05.021.05.022.049.022.049.022.048.024.049.023.047.024.048.024.048.025.047.026.047.025.046.027.046.026.046.027.046.028.045.028.045.028.045.03.044.028.044.03.043.03.043.03.043.031.042.032.042.031.042.032.041.033.041.033.04.033.041.033.04.034.04.034.038.035.039.035.038.035.038.036.037.036.037.036.037.037.036.037.036.037.035.038.035.038.034.038.035.039.033.038.033.04.033.039.032.04.032.04.032.04.03.04.031.04.03.042.03.04.03.042.028.042.029.042.027.042.028.042.027.043.026.043.026.043.026.043.025.043.024.044.025.044.023.044.023.044.023.044.023.044.021.045.022.045.02.045.02.045.02.045.02.045.02.046.018.045.018.046.017.046.017.046.017.046.016.046.015.046.015.046.015.047.014.046.014.046.013.047.013.047.012.046.012.047.01.047.011.047.01.047.01.046.01.047.009.047.008.047.008.047.007.047.007.047.007.047.006.047.005.047.005.047.005.046.004.047.003.047.003.047.003.046.002.047.002.047.001.046.001h.139l.046-.002.047-.001.046-.002.045-.002.046-.003.046-.004.046-.003.045-.005.046-.004.045-.006.045-.005.045-.006.045-.006.044-.007.045-.008.045-.007.044-.009.044-.008.044-.01.044-.009.043-.01.044-.01.043-.01.043-.012.043-.011.043-.012.042-.012.042-.013.042-.013.042-.014.042-.014.041-.014.042-.015.04-.015.041-.015.041-.016.04-.017.04-.016.04-.017.04-.017.04-.018.038-.018.04-.019.038-.018.038-.02.038-.019.038-.02.037-.02.038-.02.036-.021.037-.021.037-.022.035-.022.036-.022.036-.023.035-.022.035-.023.035-.024.034-.024.034-.023.033-.025.034-.024.033-.025.033-.025.032-.026.032-.026.032-.026.031-.026.031-.026.031-.027.03-.027.03-.028.03-.027.03-.028.029-.028.028-.028.029-.029.028-.028.027-.03.028-.029.027-.03.026-.029.027-.03.025-.03.026-.03.025-.03.025-.03.024-.032.024-.03.024-.032.023-.031.023-.032.023-.032.022-.032.022-.032.021-.032.021-.032.02-.033.021-.032.02-.033.02-.033.019-.033.018-.033.019-.034.018-.033.017-.034.018-.033.017-.034.016-.034.016-.034.016-.034.015-.034.015-.034.015-.035.014-.034.013-.035.014-.034.013-.035.012-.034.013-.035.011-.035.012-.035.01-.034.011-.035.01-.035.01-.035.01-.035.01-.035.008-.035.008-.036.008-.035.008-.034.007-.036.007-.035.006-.035.006-.035.006-.035.005-.035.005-.035.004-.035.005-.035.003-.035.004-.035.003-.035.002-.035.003-.034.001-.035.002-.035.001-.034v-.035l.001-.035v-.103l-.002-.034-.001-.034-.002-.034-.002-.034-.002-.034-.003-.033-.003-.034-.004-.034-.003-.033-.005-.034-.004-.033-.005-.033-.005-.032-.006-.034-.006-.032-.006-.033-.006-.032-.007-.033-.007-.032-.008-.032-.008-.032-.008-.031-.008-.032-.009-.031-.009-.032-.01-.03-.009-.032-.01-.03-.01-.031-.011-.03-.01-.03-.012-.03-.012-.03-.011-.03-.012-.03-.013-.03-.012-.029-.013-.029-.013-.028-.014-.029-.013-.028-.014-.028-.015-.028-.014-.028-.015-.027-.015-.028-.015-.027-.016-.027-.015-.026-.016-.027-.017-.026-.016-.026-.017-.026-.017-.025-.017-.026-.018-.025-.017-.024-.018-.025-.018-.024-.018-.024-.019-.024-.019-.024-.018-.023-.02-.023-.019-.023-.02-.023-.019-.022-.02-.022-.02-.022-.02-.022-.02-.021-.021-.021-.021-.021-.021-.02-.021-.02-.021-.02-.022-.02-.021-.02-.022-.02-.022-.018-.022-.019-.022-.018-.022-.018-.023-.018-.022-.018-.023-.017-.023-.017-.023-.017-.023-.016-.023-.016-.023-.016-.024-.016-.023-.015-.024-.016-.024-.014-.024-.015-.023-.014-.024-.014-.024-.014-.025-.013-.024-.013-.024-.013-.024-.013-.025-.012-.024-.012-.025-.012-.024-.011-.025-.011-.025-.011-.025-.01-.024-.011-.025-.01-.025-.01-.025-.01-.025-.008-.025-.01-.025-.008-.025-.008-.025-.008-.025-.008-.025-.008-.025-.007-.026-.007-.025-.007-.025-.006-.025-.006-.025-.006-.025-.006-.025-.005-.025-.005-.025-.005-.025-.004-.025-.004-.025-.004-.025-.004-.025-.004-.025-.003-.024-.003-.025-.002-.025-.002-.025-.003-.024-.002-.025-.001-.024-.002h-.025l-.024-.001-.024-.001h-.121l-.024.002-.024.001-.024.001-.023.002-.024.002-.023.002-.023.002-.024.003-.023.003-.023.003-.023.003-.023.004-.022.003-.023.004-.022.004-.023.005-.022.004-.022.005z" clip-rule="evenodd"/><path fill="#fff" d="M49.767 19.535a2.3 2.3 0 0 0-.141-.82 1.55 1.55 0 0 0-.492-.68q-.363-.316-1.02-.62a14 14 0 0 0-1.699-.634 22 22 0 0 1-2.203-.843 9 9 0 0 1-1.828-1.09 4.9 4.9 0 0 1-1.242-1.465q-.446-.833-.446-1.934a4 4 0 0 1 .469-1.933 4.45 4.45 0 0 1 1.313-1.5q.843-.633 1.992-.973a9 9 0 0 1 2.543-.34q1.886 0 3.293.68 1.406.68 2.18 1.863.785 1.184.785 2.707h-3.493q0-.75-.316-1.312a2.14 2.14 0 0 0-.938-.903q-.62-.328-1.57-.328-.914 0-1.523.281-.61.27-.914.739a1.8 1.8 0 0 0-.305 1.03q0 .435.21.786.224.351.657.656.435.305 1.066.575.633.27 1.465.527a15.6 15.6 0 0 1 2.45.95q1.066.525 1.78 1.183a4.4 4.4 0 0 1 1.079 1.488q.363.833.363 1.887 0 1.113-.433 1.992a4.1 4.1 0 0 1-1.254 1.488q-.821.61-1.957.926t-2.543.316q-1.266 0-2.496-.328a7.6 7.6 0 0 1-2.239-1.02 5.14 5.14 0 0 1-1.593-1.734q-.598-1.055-.598-2.496h3.527q0 .797.246 1.348.246.55.692.89.456.34 1.078.493.633.152 1.383.152.915 0 1.5-.258.597-.258.879-.715a1.87 1.87 0 0 0 .293-1.03m17.285-5.648v2.742h-8.907v-2.742zm-7.864-6.95V24h-3.515V6.938zm10.372 0V24h-3.504V6.938zm14.507 14.32V24h-9.082v-2.742zm-7.933-14.32V24h-3.516V6.938zm6.75 6.95v2.672h-7.899v-2.672zm1.172-6.95v2.754h-9.07V6.937zm13.03 14.32V24h-8.589v-2.742zm-7.452-14.32V24h-3.516V6.938zm20.437 14.32V24h-8.59v-2.742zm-7.453-14.32V24h-3.515V6.938zm18.352 12.598q0-.457-.141-.82a1.55 1.55 0 0 0-.492-.68q-.363-.316-1.02-.62a14 14 0 0 0-1.699-.634 22 22 0 0 1-2.203-.843 9 9 0 0 1-1.828-1.09 4.9 4.9 0 0 1-1.242-1.465q-.446-.833-.446-1.934 0-1.065.469-1.933a4.45 4.45 0 0 1 1.313-1.5q.843-.633 1.992-.973a9 9 0 0 1 2.543-.34q1.886 0 3.293.68 1.406.68 2.179 1.863.786 1.184.786 2.707h-3.493q0-.75-.316-1.312a2.14 2.14 0 0 0-.937-.903q-.622-.328-1.571-.328-.914 0-1.523.281-.61.27-.914.739a1.8 1.8 0 0 0-.305 1.03q0 .435.211.786.222.351.656.656t1.067.575 1.464.527q1.395.422 2.45.95 1.066.525 1.781 1.183.715.656 1.078 1.488.363.833.363 1.887 0 1.113-.433 1.992a4.1 4.1 0 0 1-1.254 1.488q-.82.61-1.957.926t-2.543.316q-1.266 0-2.496-.328a7.6 7.6 0 0 1-2.239-1.02 5.1 5.1 0 0 1-1.593-1.734q-.598-1.055-.598-2.496h3.527q0 .797.247 1.348.246.55.691.89.457.34 1.078.493.633.152 1.383.152.913 0 1.5-.258.597-.258.879-.715.293-.456.293-1.03"/></svg>