<svg xmlns="http://www.w3.org/2000/svg" width="110" height="32" fill="none" viewBox="0 0 110 32"><path fill="#fff" d="M10.166 19.982v8.12a1.173 1.173 0 1 1-2.348 0v-8.109c.327.239.719.372 1.124.382.44.012.873-.126 1.224-.393m9.996-2.348a1.123 1.123 0 0 0-1.123 1.124v1.415a1.173 1.173 0 1 0 2.348 0v-1.36a1.124 1.124 0 0 0-1.225-1.179M5.27 23.06a2 2 0 0 1-1.123-.382v8.144a1.18 1.18 0 1 0 2.358 0v-8.087c-.367.237-.8.35-1.235.325m11.23-7.863a1.123 1.123 0 0 0-1.18 1.123v6.256a1.179 1.179 0 1 0 2.36 0V16.4a1.123 1.123 0 0 0-1.236-1.18zM12.77 17.6a2.06 2.06 0 0 1-1.179-.382v8.165a1.18 1.18 0 1 0 2.36 0V17.23a2 2 0 0 1-1.236.393zM2.72 23.857V1.045A1.056 1.056 0 0 0 1.663 0h-.247A1.056 1.056 0 0 0 .36 1.045v22.812a1.056 1.056 0 0 0 1.056 1.056h.247a1.056 1.056 0 0 0 1.056-1.056m2.673-1.662h-.247a1.055 1.055 0 0 1-1.056-1.056V3.763a1.056 1.056 0 0 1 1.056-1.045h.247a1.056 1.056 0 0 1 1.056 1.045V21.16a1.056 1.056 0 0 1-1.056 1.056zM9.11 19.52h-.258a1.045 1.045 0 0 1-1.045-1.044V6.458a1.046 1.046 0 0 1 1.045-1.055h.258a1.056 1.056 0 0 1 1.045 1.055v12.019A1.044 1.044 0 0 1 9.11 19.52m3.718-2.752h-.236a1.055 1.055 0 0 1-1.056-1.044v-6.47a1.055 1.055 0 0 1 1.056-1.123h.247a1.056 1.056 0 0 1 1.056 1.056v6.514a1.055 1.055 0 0 1-1.056 1.067zm3.729-2.414h-.247a1.056 1.056 0 0 1-1.056-1.056v-1.674a1.056 1.056 0 0 1 1.056-1.044h.247a1.056 1.056 0 0 1 1.056 1.044V13.3a1.056 1.056 0 0 1-1.045 1.056zm18.468 6.939 3.398-14.355h1.899l.433 2.39L37.135 24h-2.04zM33.279 6.938l2.812 14.355L35.857 24h-2.273L29.798 6.938zm10.465 14.296L46.52 6.937H50L46.229 24h-2.273zM41.388 6.937l3.422 14.415L44.716 24h-2.039L39.033 9.316l.468-2.379zm16.946 2.918L53.693 24h-3.738l6.34-17.062h2.378zM62.189 24 57.537 9.855l-.375-2.918h2.402L65.939 24zm-.211-6.352v2.754h-9.012v-2.754zm10.734 2.79 4.02-13.5h3.914L74.705 24h-2.579zm-3.703-13.5 4.008 13.5.61 3.562h-2.602L65.119 6.938zm24.68 14.32V24h-9.082v-2.742zm-7.934-14.32V24H82.24V6.938zm6.75 6.949v2.672h-7.898v-2.672zm1.172-6.95v2.754h-9.07V6.937zm10.946 12.598q0-.457-.141-.82a1.55 1.55 0 0 0-.492-.68q-.363-.316-1.02-.62a14 14 0 0 0-1.699-.634 22 22 0 0 1-2.203-.843 9 9 0 0 1-1.828-1.09 4.9 4.9 0 0 1-1.242-1.465q-.446-.833-.446-1.934a4 4 0 0 1 .469-1.933 4.45 4.45 0 0 1 1.313-1.5q.843-.633 1.992-.973a9 9 0 0 1 2.543-.34q1.886 0 3.293.68 1.406.68 2.179 1.863.785 1.184.785 2.707h-3.492q0-.75-.316-1.312a2.14 2.14 0 0 0-.938-.903q-.62-.328-1.57-.328-.914 0-1.523.281-.61.27-.914.739a1.8 1.8 0 0 0-.305 1.03q0 .435.21.786.224.351.657.656t1.066.575 1.465.527q1.394.422 2.45.95 1.065.525 1.781 1.183.714.656 1.078 1.488.363.833.363 1.887 0 1.113-.433 1.992a4.1 4.1 0 0 1-1.254 1.488q-.821.61-1.957.926t-2.543.316q-1.266 0-2.496-.328a7.6 7.6 0 0 1-2.239-1.02 5.14 5.14 0 0 1-1.593-1.734q-.598-1.055-.598-2.496h3.527q0 .797.246 1.348.246.55.692.89.457.34 1.078.493.633.152 1.383.152.913 0 1.5-.258.597-.258.879-.715.293-.456.293-1.03"/></svg>