<svg width="42" height="40" viewBox="0 0 42 40" fill="none" xmlns="http://www.w3.org/2000/svg">
<g filter="url(#filter0_d_1148_3339)">
<path d="M27.4828 26.4845L6.07016 11.714C3.90025 10.2173 4.63788 7.10088 7.3437 6.36802L30.1015 0.191307C30.5836 0.0173566 31.1001 -0.0391112 31.6085 0.0265948C32.1167 0.0923008 32.602 0.278283 33.024 0.569108C33.446 0.859932 33.7926 1.24721 34.0349 1.6988C34.2772 2.15038 34.4083 2.65326 34.4174 3.16568L33.0687 24.1116C32.9087 26.5978 29.6527 27.9812 27.4828 26.4845Z" fill="white"/>
<path d="M20.6914 30.1304L8.07652 5.46055C7.78815 4.89618 7.66126 4.26312 7.70983 3.63121C7.75839 2.9993 7.98054 2.39308 8.35175 1.8794C8.72298 1.36572 9.22885 0.96454 9.81359 0.720098C10.3983 0.475655 11.0392 0.397452 11.6656 0.494119L35.044 4.10227C35.5822 4.18535 36.0931 4.395 36.5346 4.71398C36.9759 5.03297 37.3353 5.45218 37.5832 5.93714C37.831 6.4221 37.9603 6.95895 37.9602 7.50358C37.96 8.04819 37.8307 8.58502 37.5828 9.0699L26.8132 30.1316C26.524 30.6943 26.0852 31.1665 25.5451 31.4961C25.005 31.8257 24.3846 32 23.7519 31.9999C23.1192 31.9997 22.4988 31.8252 21.9588 31.4955C21.4188 31.1656 20.9803 30.6933 20.6914 30.1304Z" fill="white"/>
<path d="M28.3809 8.72693L23.8921 8L18.3809 9.57011L20.5807 14.0856L25.7319 17.8153C25.8456 17.8966 25.9706 17.959 26.1024 18L28.059 13.9852L28.3809 8.72693Z" fill="#0F172A"/>
</g>
<defs>
<filter id="filter0_d_1148_3339" x="0.801758" y="0" width="41.1582" height="39.9999" filterUnits="userSpaceOnUse" color-interpolation-filters="sRGB">
<feFlood flood-opacity="0" result="BackgroundImageFix"/>
<feColorMatrix in="SourceAlpha" type="matrix" values="0 0 0 0 0 0 0 0 0 0 0 0 0 0 0 0 0 0 127 0" result="hardAlpha"/>
<feOffset dy="4"/>
<feGaussianBlur stdDeviation="2"/>
<feComposite in2="hardAlpha" operator="out"/>
<feColorMatrix type="matrix" values="0 0 0 0 0 0 0 0 0 0 0 0 0 0 0 0 0 0 0.25 0"/>
<feBlend mode="normal" in2="BackgroundImageFix" result="effect1_dropShadow_1148_3339"/>
<feBlend mode="normal" in="SourceGraphic" in2="effect1_dropShadow_1148_3339" result="shape"/>
</filter>
</defs>
</svg>
