<svg xmlns="http://www.w3.org/2000/svg" width="16" height="16" fill="none"><path fill="#898989" d="m11.43 11.067-.515.773c-.103.154-.239.286-.418.334-.588.155-2.147.225-4.521-2.15C3.6 7.65 3.67 6.09 3.826 5.503c.048-.18.18-.315.334-.418l.773-.516a1.253 1.253 0 0 0 .348-1.737L3.82.642A1.25 1.25 0 0 0 2.283.184l-.659.282c-.5.215-.908.6-1.152 1.086-.203.407-.36.836-.382 1.29-.068 1.432.246 4.96 4.176 8.89s7.458 4.243 8.89 4.176c.454-.021.883-.179 1.29-.382a2.3 2.3 0 0 0 1.086-1.152l.282-.66c.238-.554.046-1.2-.456-1.535l-2.191-1.46a1.253 1.253 0 0 0-1.737.347z"/></svg>