<svg xmlns="http://www.w3.org/2000/svg" width="167" height="32" fill="none" viewBox="0 0 167 32"><path fill="#fff" d="M37.796 32h12.918l-32-32H5.796zM25.351 0 56.2 30.847V0h-8.35v9.74L38.11 0zM.389 1.071V32h8.347v-9.74l9.74 9.74h12.841zM72.66 9.855 68.018 24H64.28l6.34-17.062H73zM76.514 24 71.862 9.855l-.375-2.918h2.403L80.265 24zm-.211-6.352v2.754h-9.012v-2.754zm8.707-3.562V24h-3.375V11.32h3.175zm3.82-2.848-.059 3.13a8 8 0 0 0-.597-.06 6 6 0 0 0-.621-.035q-.715 0-1.243.188a2.2 2.2 0 0 0-.867.527q-.34.352-.515.856a4.2 4.2 0 0 0-.188 1.148l-.68-.21q0-1.231.247-2.262.246-1.043.714-1.817.48-.773 1.172-1.195t1.582-.422q.282 0 .575.047.293.035.48.105m8.39.082v2.39h-7.38v-2.39zm-5.554-3.129h3.375V20.18q0 .55.14.843.153.293.446.41.292.105.738.106.317 0 .563-.023.258-.036.433-.07l.012 2.484a6 6 0 0 1-.937.222 7 7 0 0 1-1.114.082q-1.113 0-1.945-.363a2.68 2.68 0 0 1-1.266-1.195q-.445-.82-.445-2.156zm13.84 12.247 4.019-13.5h3.914L107.499 24h-2.578zm-3.703-13.5 4.008 13.5.609 3.562h-2.602L97.913 6.938zm18.34 17.296q-1.477 0-2.649-.468a5.8 5.8 0 0 1-1.992-1.325 5.9 5.9 0 0 1-1.242-1.957 6.6 6.6 0 0 1-.434-2.39v-.469q0-1.44.41-2.637a6.2 6.2 0 0 1 1.172-2.074 5.15 5.15 0 0 1 1.875-1.348q1.102-.48 2.485-.48 1.347 0 2.39.445a4.7 4.7 0 0 1 1.746 1.266q.715.82 1.078 1.969.364 1.136.364 2.53v1.407h-10.078v-2.25h6.761v-.258q0-.702-.258-1.254a2 2 0 0 0-.75-.89q-.503-.328-1.289-.328-.668 0-1.148.293-.48.292-.785.82a4.5 4.5 0 0 0-.446 1.242q-.14.704-.14 1.547v.469q0 .761.211 1.406.222.644.621 1.113.41.47.984.727.586.258 1.324.258.915 0 1.7-.352a3.7 3.7 0 0 0 1.371-1.09l1.64 1.782q-.398.574-1.089 1.101-.68.527-1.641.867-.961.328-2.191.328m10.429-10.207V24h-3.375V11.32h3.164zm-.492 3.188h-.914q0-1.406.363-2.531.363-1.137 1.02-1.934.656-.81 1.558-1.23.915-.434 2.039-.434.891 0 1.629.258.739.258 1.266.82.539.563.82 1.488.294.926.293 2.262V24h-3.398v-8.098q0-.843-.235-1.312a1.3 1.3 0 0 0-.691-.656q-.445-.2-1.102-.2-.68 0-1.183.27-.493.27-.82.75a3.5 3.5 0 0 0-.481 1.101 5.4 5.4 0 0 0-.164 1.36m18.141 3.75V11.32h3.375V24h-3.176zm.375-2.602.996-.023q0 1.266-.293 2.355-.293 1.08-.879 1.875a4.1 4.1 0 0 1-1.477 1.23q-.89.434-2.097.434a5.5 5.5 0 0 1-1.711-.257 3.5 3.5 0 0 1-1.336-.832q-.55-.575-.867-1.465-.305-.903-.305-2.168V11.32h3.375v8.215q0 .563.129.95.14.386.387.632.246.246.574.352.339.105.75.105 1.043 0 1.64-.422.61-.421.856-1.148.258-.739.258-1.64m11.414 5.871q-1.477 0-2.649-.468a5.8 5.8 0 0 1-1.992-1.325 5.9 5.9 0 0 1-1.242-1.957 6.6 6.6 0 0 1-.434-2.39v-.469q0-1.44.41-2.637a6.2 6.2 0 0 1 1.172-2.074 5.15 5.15 0 0 1 1.875-1.348q1.102-.48 2.485-.48 1.347 0 2.39.445a4.7 4.7 0 0 1 1.746 1.266q.715.82 1.079 1.969.363 1.136.363 2.53v1.407h-10.078v-2.25h6.761v-.258q0-.702-.257-1.254a2 2 0 0 0-.75-.89q-.504-.328-1.289-.328-.669 0-1.149.293-.48.292-.785.82a4.5 4.5 0 0 0-.445 1.242 8 8 0 0 0-.141 1.547v.469q0 .761.211 1.406.222.644.621 1.113.411.47.984.727.586.258 1.325.258.913 0 1.699-.352a3.7 3.7 0 0 0 1.371-1.09l1.641 1.782q-.399.574-1.09 1.101-.68.527-1.641.867-.96.328-2.191.328"/></svg>