<svg xmlns="http://www.w3.org/2000/svg" width="375" height="379" fill="none" viewBox="0 0 375 379"><path stroke="#9333EA" stroke-width="5" d="M242.5 227.5c0 82.813-54.196 149-120 149s-120-66.187-120-149 54.196-149 120-149 120 66.187 120 149Z"/><path stroke="#D8B4FE" stroke-width="5" d="M205.5 253c0 46.709-37.201 84.5-83 84.5s-83-37.791-83-84.5 37.201-84.5 83-84.5 83 37.791 83 84.5Z"/><path fill="#C2410C" d="M196 252c0-9.718-1.875-19.34-5.519-28.319a74.1 74.1 0 0 0-15.716-24.007 72.4 72.4 0 0 0-23.52-16.041A71.2 71.2 0 0 0 123.5 178v74z"/><path stroke="#581C87" stroke-width="5" d="M125.5 2.5h247v247h-247z"/></svg>